<svg width="24" height="24" viewBox="0 0 24 24" fill="none" xmlns="http://www.w3.org/2000/svg">
    <path d="M13.264 19.577C13.264 20.273 13.831 20.841 14.528 20.841C15.219 20.841 15.792 20.274 15.792 19.577C15.792 18.886 15.22 18.313 14.528 18.313C13.831 18.313 13.264 18.886 13.264 19.577ZM18.313 19.577C18.313 20.273 18.885 20.841 19.577 20.841C20.2729 20.841 20.841 20.274 20.841 19.577C20.841 18.886 20.274 18.313 19.577 18.313C18.886 18.313 18.313 18.886 18.313 19.577ZM8.20899 19.577C8.20899 20.273 8.78098 20.841 9.47299 20.841C10.169 20.841 10.737 20.274 10.737 19.577C10.737 18.886 10.17 18.313 9.47299 18.313C8.78098 18.313 8.20899 18.886 8.20899 19.577ZM8.84099 23.368C8.84099 23.721 9.11999 24 9.47299 24C9.82598 24 10.105 23.721 10.105 23.368C10.105 23.015 9.82598 22.736 9.47299 22.736C9.11999 22.736 8.84099 23.016 8.84099 23.368ZM3.15899 19.577C3.15899 20.273 3.726 20.841 4.42298 20.841C5.11398 20.841 5.68698 20.274 5.68698 19.577C5.68698 18.886 5.11499 18.313 4.42298 18.313C3.727 18.313 3.15899 18.886 3.15899 19.577ZM10.104 0.631998C10.104 0.279003 9.82498 -4.29463e-07 9.47198 -4.14033e-07C9.11899 -3.98604e-07 8.83998 0.279003 8.83998 0.631998C8.83998 0.984993 9.11899 1.264 9.47198 1.264C9.82498 1.264 10.104 0.984033 10.104 0.631998ZM5.68698 9.47303C5.68698 8.78203 5.11499 8.20904 4.42298 8.20904C3.727 8.20904 3.15899 8.78103 3.15899 9.47303C3.15899 10.169 3.726 10.737 4.42298 10.737C5.11398 10.736 5.68698 10.169 5.68698 9.47303ZM1.264 9.47303C1.264 9.12004 0.984992 8.84103 0.631998 8.84103C0.279004 8.84103 -6.50426e-07 9.11999 -6.34994e-07 9.47303C-6.19564e-07 9.82603 0.279004 10.105 0.631998 10.105C0.984992 10.105 1.264 9.82502 1.264 9.47303ZM13.896 23.368C13.896 23.721 14.175 24 14.527 24C14.879 24 15.159 23.721 15.159 23.368C15.159 23.015 14.88 22.736 14.527 22.736C14.174 22.736 13.896 23.016 13.896 23.368ZM22.736 14.527C22.736 14.88 23.015 15.159 23.368 15.159C23.721 15.159 24 14.88 24 14.527C24 14.174 23.721 13.895 23.368 13.895C23.015 13.895 22.736 14.175 22.736 14.527ZM1.264 14.527C1.264 14.174 0.984993 13.895 0.631998 13.895C0.279004 13.895 -4.29463e-07 14.175 -4.14077e-07 14.527C-3.98692e-07 14.879 0.279004 15.159 0.631998 15.159C0.984993 15.159 1.264 14.88 1.264 14.527ZM5.68698 14.527C5.68698 13.831 5.11499 13.263 4.42298 13.263C3.727 13.263 3.15899 13.83 3.15899 14.527C3.15899 15.218 3.726 15.791 4.42298 15.791C5.11398 15.791 5.68698 15.219 5.68698 14.527ZM12.632 14.527C12.632 15.577 13.478 16.423 14.528 16.423C15.578 16.423 16.424 15.577 16.424 14.527C16.424 13.477 15.578 12.631 14.528 12.631C13.478 12.631 12.632 13.478 12.632 14.527ZM13.264 4.42303C13.264 5.11403 13.831 5.68703 14.528 5.68703C15.219 5.68703 15.792 5.11503 15.792 4.42303C15.792 3.72705 15.22 3.15903 14.528 3.15903C13.831 3.15903 13.264 3.727 13.264 4.42303ZM18.313 4.42303C18.313 5.11403 18.885 5.68703 19.577 5.68703C20.2729 5.68703 20.841 5.11503 20.841 4.42303C20.841 3.72705 20.274 3.15903 19.577 3.15903C18.886 3.15903 18.313 3.727 18.313 4.42303ZM8.20899 4.42303C8.20899 5.11403 8.78098 5.68703 9.47299 5.68703C10.169 5.68703 10.737 5.11503 10.737 4.42303C10.737 3.72705 10.17 3.15903 9.47299 3.15903C8.78098 3.15903 8.20899 3.727 8.20899 4.42303ZM3.15899 4.42303C3.15899 5.11403 3.726 5.68703 4.42298 5.68703C5.11398 5.68703 5.68698 5.11503 5.68698 4.42303C5.68698 3.72705 5.11499 3.15903 4.42298 3.15903C3.727 3.15903 3.15899 3.727 3.15899 4.42303ZM13.896 0.631997C13.896 0.984992 14.175 1.264 14.528 1.264C14.881 1.264 15.16 0.984992 15.16 0.631997C15.16 0.279002 14.88 -6.50424e-07 14.527 -6.34994e-07C14.174 -6.19564e-07 13.896 0.279003 13.896 0.631997ZM18.313 9.47303C18.313 10.169 18.885 10.737 19.577 10.737C20.2729 10.737 20.841 10.17 20.841 9.47303C20.841 8.78203 20.274 8.20903 19.577 8.20904C18.886 8.20899 18.313 8.78103 18.313 9.47303ZM22.736 9.47303C22.736 9.82603 23.015 10.105 23.368 10.105C23.721 10.105 24 9.82502 24 9.47303C24 9.12104 23.721 8.84103 23.368 8.84103C23.015 8.84103 22.736 9.11999 22.736 9.47303ZM7.57699 14.527C7.57699 15.577 8.42301 16.423 9.47299 16.423C10.523 16.423 11.369 15.577 11.369 14.527C11.369 13.477 10.523 12.631 9.47299 12.631C8.42301 12.631 7.57699 13.478 7.57699 14.527ZM18.313 14.527C18.313 15.218 18.885 15.791 19.577 15.791C20.2729 15.791 20.841 15.219 20.841 14.527C20.841 13.831 20.274 13.263 19.577 13.263C18.886 13.264 18.313 13.831 18.313 14.527ZM12.632 9.47303C12.632 10.523 13.478 11.369 14.528 11.369C15.578 11.369 16.424 10.523 16.424 9.47303C16.424 8.42305 15.578 7.57704 14.528 7.57704C13.478 7.57704 12.632 8.42301 12.632 9.47303ZM7.57699 9.47303C7.57699 10.523 8.42301 11.369 9.47299 11.369C10.523 11.369 11.369 10.523 11.369 9.47303C11.369 8.42305 10.523 7.57704 9.47299 7.57704C8.42301 7.57704 7.57699 8.42301 7.57699 9.47303Z" fill="#eee"/>
</svg>
