<svg width="10" height="10" viewBox="0 0 10 10" fill="none" xmlns="http://www.w3.org/2000/svg">
<g clip-path="url(#clip0)">
<path d="M0.568965 1.64067C0.710179 1.4993 0.877721 1.4286 1.07116 1.4286H1.78536V0.892865C1.78536 0.647377 1.87287 0.437168 2.0477 0.262317C2.22263 0.0874649 2.43272 0 2.67832 0H3.03538C3.28096 0 3.49113 0.0874649 3.66598 0.262336C3.84089 0.437168 3.92832 0.647397 3.92832 0.892885V1.42862H6.07106V0.892885C6.07106 0.647397 6.15853 0.437188 6.3334 0.262336C6.50823 0.0874649 6.71842 0 6.964 0H7.32111C7.56664 0 7.77685 0.0874649 7.95172 0.262336C8.12655 0.437168 8.21404 0.647397 8.21404 0.892885V1.42862H8.92826C9.12176 1.42862 9.28914 1.49932 9.43051 1.64069C9.57188 1.78204 9.64258 1.9495 9.64258 2.14294V9.2858C9.64258 9.47911 9.57188 9.64653 9.43051 9.78798C9.28916 9.92931 9.12178 10 8.92826 10H1.0713C0.877857 10 0.710296 9.92933 0.569101 9.78798C0.427711 9.64659 0.356997 9.47909 0.356997 9.2858V2.14292C0.357017 1.94942 0.427653 1.78204 0.568965 1.64067ZM3.21394 0.892944C3.21394 0.840816 3.19735 0.797993 3.16391 0.76459C3.13046 0.731148 3.08766 0.714398 3.03549 0.714398H2.67844C2.62626 0.714398 2.58359 0.731089 2.55003 0.76459C2.51657 0.798051 2.49986 0.840875 2.49986 0.892944V2.50003C2.49986 2.55214 2.51657 2.59488 2.55003 2.62838C2.58361 2.66179 2.62626 2.67858 2.67844 2.67858H3.03549C3.08766 2.67858 3.13046 2.66187 3.16391 2.62838C3.19735 2.59486 3.21394 2.55214 3.21394 2.50003V0.892944ZM7.49966 0.892944C7.49966 0.840816 7.48295 0.797993 7.44947 0.76459C7.41597 0.731148 7.37322 0.714398 7.32111 0.714398H6.964C6.91188 0.714398 6.86905 0.731089 6.83565 0.76459C6.80221 0.798051 6.78542 0.840875 6.78542 0.892944V2.50003C6.78542 2.55214 6.80213 2.59494 6.83565 2.62838C6.86913 2.66179 6.91188 2.67858 6.964 2.67858H7.32111C7.37322 2.67858 7.41603 2.66187 7.44947 2.62838C7.48287 2.59486 7.49966 2.55214 7.49966 2.50003V0.892944ZM1.0713 9.28571H8.92826V3.57146H1.0713V9.28571Z" fill="#C4C4C4"/>
</g>
<defs>
<clipPath id="clip0">
<rect width="10" height="10" fill="white" transform="matrix(-1 0 0 1 10 0)"/>
</clipPath>
</defs>
</svg>
