<svg width="431" height="431" viewBox="0 0 431 431" fill="none" xmlns="http://www.w3.org/2000/svg">
<path fill-rule="evenodd" clip-rule="evenodd" d="M0.243586 225.978C1.12794 243.631 4.14119 260.724 9.0318 277.004H420.99C425.881 260.724 428.894 243.631 429.778 225.978H0.243586ZM41.8794 342.61C30.4088 327.069 20.9808 309.928 13.9917 291.583H416.03C409.041 309.928 399.613 327.069 388.142 342.61H41.8794ZM53.6498 357.189C93.055 401.886 150.74 430.081 215.011 430.081C279.282 430.081 336.967 401.886 376.372 357.189H53.6498ZM0.000488281 211.399C0.292856 193.792 2.7012 176.701 6.98222 160.367H423.04C427.321 176.701 429.729 193.792 430.021 211.399H0.000488281ZM41.8758 87.476C28.9002 105.058 18.5387 124.686 11.3648 145.788H418.657C411.483 124.686 401.122 105.058 388.146 87.476H41.8758ZM53.6455 72.897C93.0507 28.1976 150.738 0 215.011 0C279.284 0 336.971 28.1976 376.376 72.897H53.6455Z" fill="#DA2128"/>
<mask id="mask0" mask-type="alpha" maskUnits="userSpaceOnUse" x="0" y="0" width="431" height="431">
<path fill-rule="evenodd" clip-rule="evenodd" d="M0.243097 225.978C1.12746 243.631 4.1407 260.724 9.03132 277.004H420.99C425.88 260.724 428.893 243.631 429.778 225.978H0.243097ZM41.8789 342.61C30.4083 327.069 20.9803 309.928 13.9912 291.583H416.03C409.041 309.928 399.613 327.069 388.142 342.61H41.8789ZM53.6493 357.189C93.0545 401.886 150.74 430.081 215.01 430.081C279.281 430.081 336.966 401.886 376.371 357.189H53.6493ZM0 211.399C0.292368 193.792 2.70071 176.701 6.98174 160.367H423.039C427.32 176.701 429.728 193.792 430.021 211.399H0ZM41.8753 87.476C28.8997 105.058 18.5382 124.686 11.3644 145.788H418.656C411.483 124.686 401.121 105.058 388.146 87.476H41.8753ZM53.645 72.897C93.0503 28.1976 150.737 0 215.01 0C279.283 0 336.971 28.1976 376.376 72.897H53.645Z" fill="#DA2128"/>
</mask>
<g mask="url(#mask0)">
<rect x="215.011" y="-20.8315" width="325.12" height="484.331" fill="#EDEDED"/>
</g>
</svg>
