<svg width="15" height="15" viewBox="0 0 15 15" fill="none" xmlns="http://www.w3.org/2000/svg">
<path d="M7.50317 0C10.8176 0 13.5157 2.69811 13.5157 6.01258C13.5157 6.38994 13.4812 6.77044 13.4088 7.14151C13.4057 7.16352 13.3931 7.22956 13.3679 7.34277C13.2768 7.74843 13.1415 8.1478 12.9654 8.5283C12.3176 10.0535 10.8931 12.3962 7.76732 14.9057C7.6887 14.9686 7.59436 15 7.50002 15C7.40568 15 7.31134 14.9686 7.23273 14.9057C4.11009 12.3962 2.68241 10.0535 2.03462 8.5283C1.85851 8.1478 1.72329 7.75157 1.6321 7.34277C1.60694 7.22956 1.59436 7.16352 1.59122 7.14151C1.52204 6.77044 1.4843 6.38994 1.4843 6.01258C1.49059 2.69811 4.1887 0 7.50317 0ZM2.43399 6.99371C2.43399 7 2.43713 7.00629 2.43713 7.01258C2.44028 7.0283 2.44971 7.07547 2.46543 7.1478C2.46543 7.15094 2.46543 7.15094 2.46543 7.15409C2.54405 7.50629 2.6604 7.84906 2.81449 8.17925C2.81763 8.18239 2.81763 8.18868 2.82078 8.19182C3.40883 9.58491 4.69814 11.7107 7.50317 14.0283C10.3082 11.7107 11.5975 9.58491 12.1856 8.19182C12.1887 8.18868 12.1887 8.18239 12.1918 8.17925C12.3428 7.8522 12.4591 7.50629 12.5409 7.15409C12.5409 7.15094 12.5409 7.15094 12.5409 7.1478C12.5598 7.07547 12.5661 7.0283 12.5692 7.01258C12.5692 7.00629 12.5724 7 12.5724 6.99057C12.6352 6.66667 12.6667 6.33962 12.6667 6.00943C12.6667 3.16352 10.3491 0.845912 7.50317 0.845912C4.65726 0.845912 2.33965 3.16352 2.33965 6.00943C2.33965 6.34277 2.37109 6.67296 2.43399 6.99371Z" fill="#DA2128"/>
<path d="M7.50319 2.26102C9.60696 2.26102 11.3208 3.97485 11.3208 6.07863C11.3208 8.1824 9.60696 9.89624 7.50319 9.89624C5.39942 9.89624 3.68558 8.1824 3.68558 6.07863C3.68558 3.97485 5.39942 2.26102 7.50319 2.26102ZM7.50319 9.04718C9.14156 9.04718 10.4717 7.71385 10.4717 6.07863C10.4717 4.44341 9.13841 3.11007 7.50319 3.11007C5.86797 3.11007 4.53464 4.44341 4.53464 6.07863C4.53464 7.71385 5.86483 9.04718 7.50319 9.04718Z" fill="#DA2128"/>
</svg>
